<?xml version="1.0" standalone="no"?>
<svg version="1.0" xmlns="http://www.w3.org/2000/svg"
 width="426.000000pt" height="426.000000pt" viewBox="0 0 426.000000 426.000000"
 preserveAspectRatio="xMidYMid meet">
<g transform="translate(0.000000,426.000000) scale(0.100000,-0.100000)"
fill="#fff" stroke="none">
<path d="M1945 3131 c-81 -13 -235 -69 -306 -111 -76 -45 -101 -85 -101 -160
0 -57 21 -97 70 -130 52 -36 119 -34 197 6 106 56 196 78 320 78 121 1 193
-15 302 -66 123 -57 254 -183 314 -299 l18 -37 -110 -28 c-115 -30 -136 -44
-121 -82 10 -28 557 -582 574 -582 33 0 47 31 86 185 23 88 66 258 96 378 31
120 56 227 56 237 0 39 -31 41 -146 10 -60 -17 -110 -30 -112 -30 -1 0 -18 34
-38 76 -73 153 -219 316 -367 408 -82 51 -206 105 -302 131 -68 19 -347 29
-430 16z"/>
<path d="M1116 2512 c-2 -4 -25 -86 -50 -182 -25 -96 -64 -247 -86 -335 -64
-246 -67 -260 -59 -283 11 -29 39 -28 150 4 50 14 95 24 102 21 7 -3 21 -27
31 -53 52 -131 217 -321 361 -415 304 -198 693 -222 1012 -64 106 52 134 83
141 157 6 66 -17 117 -71 151 -59 39 -116 37 -204 -8 -102 -52 -156 -66 -279
-72 -137 -7 -231 11 -342 67 -83 42 -191 126 -233 181 -50 66 -92 149 -77 153
7 3 51 15 98 27 109 28 120 34 120 66 0 21 -38 65 -184 212 -101 102 -226 230
-278 284 -72 74 -100 97 -120 97 -15 0 -29 -4 -32 -8z"/>
</g>
</svg>
