<?xml version="1.0" standalone="no"?>
<svg version="1.0" xmlns="http://www.w3.org/2000/svg"
 width="225.000000pt" height="225.000000pt" viewBox="0 0 225.000000 225.000000"
 preserveAspectRatio="xMidYMid meet">
<g transform="translate(0.000000,225.000000) scale(0.100000,-0.100000)"
fill="#fff" stroke="none">
<path d="M1065 1810 c-77 -38 -75 -27 -75 -489 0 -226 -3 -411 -8 -411 -4 0
-79 72 -167 161 -88 88 -172 167 -187 175 -37 19 -104 18 -139 -3 -30 -18 -69
-84 -69 -118 0 -52 51 -112 332 -391 321 -319 332 -328 412 -304 34 10 91 62
334 303 281 280 332 340 332 392 0 34 -39 100 -69 118 -35 21 -102 22 -139 3
-15 -8 -99 -87 -187 -175 -88 -89 -163 -161 -167 -161 -5 0 -8 185 -8 411 0
463 2 452 -75 489 -52 25 -70 25 -120 0z"/>
</g>
</svg>
